<svg
    width="14"
    height="18"
    viewBox="0 0 14 18"
    fill="none"
    xmlns="http://www.w3.org/2000/svg"
  >
    <path
      fill-rule="evenodd"
      clip-rule="evenodd"
      d="M5 1.5H9V2.5H5V1.5ZM4 2.5V1.5C4 0.947715 4.44772 0.5 5 0.5H9C9.55228 0.5 10 0.947715 10 1.5V2.5H12.4C12.9601 2.5 13.2401 2.5 13.454 2.60899C13.6422 2.70487 13.7951 2.85785 13.891 3.04601C14 3.25992 14 3.53995 14 4.1V4.9C14 5.46005 14 5.74008 13.891 5.95399C13.7951 6.14215 13.6422 6.29513 13.454 6.39101C13.3192 6.45971 13.1581 6.4851 12.9171 6.49449L12.1834 15.2993C12.1187 16.0756 12.0864 16.4638 11.9144 16.7576C11.7631 17.0163 11.5376 17.2237 11.2672 17.3531C10.9602 17.5 10.5707 17.5 9.79168 17.5H4.20832C3.42931 17.5 3.03981 17.5 2.73276 17.3531C2.46237 17.2237 2.23695 17.0163 2.08556 16.7576C1.91365 16.4638 1.8813 16.0756 1.81661 15.2993L1.08287 6.49449C0.84194 6.4851 0.680841 6.45971 0.546009 6.39101C0.357847 6.29513 0.204867 6.14215 0.108993 5.95399C0 5.74008 0 5.46005 0 4.9V4.1C0 3.53995 0 3.25992 0.108993 3.04601C0.204867 2.85785 0.357847 2.70487 0.546009 2.60899C0.759921 2.5 1.03995 2.5 1.6 2.5H4ZM1.6 3.5C1.30347 3.5 1.14122 3.50078 1.02463 3.5103L1.01145 3.51145L1.0103 3.52463C1.00078 3.64122 1 3.80347 1 4.1V4.9C1 5.19653 1.00078 5.35878 1.0103 5.47537L1.01145 5.48855L1.02463 5.4897C1.14122 5.49922 1.30347 5.5 1.6 5.5H12.4C12.6965 5.5 12.8588 5.49922 12.9754 5.4897L12.9886 5.48855L12.9897 5.47537C12.9992 5.35878 13 5.19653 13 4.9V4.1C13 3.80347 12.9992 3.64122 12.9897 3.52463L12.9886 3.51145L12.9754 3.5103C12.8588 3.50078 12.6965 3.5 12.4 3.5H1.6ZM2.81315 15.2163L2.0868 6.5H11.9132L11.1868 15.2163C11.1532 15.6201 11.132 15.8654 11.1022 16.0483C11.0883 16.1332 11.0756 16.1843 11.0659 16.2153C11.0572 16.2428 11.0517 16.2519 11.0514 16.2525C11.0009 16.3387 10.9257 16.4079 10.8356 16.451C10.835 16.4513 10.8254 16.4561 10.7973 16.4624C10.7656 16.4695 10.7137 16.478 10.6279 16.4847C10.4431 16.4993 10.197 16.5 9.79168 16.5H4.20832C3.80303 16.5 3.55686 16.4993 3.37209 16.4847C3.28632 16.478 3.23437 16.4695 3.20272 16.4624C3.17459 16.4561 3.16502 16.4513 3.16441 16.451C3.07428 16.4079 2.99912 16.3388 2.94865 16.2525C2.9483 16.2519 2.94279 16.2428 2.93415 16.2153C2.92443 16.1843 2.91168 16.1332 2.89782 16.0483C2.86797 15.8654 2.84681 15.6201 2.81315 15.2163ZM7 7.5C7.27614 7.5 7.5 7.72386 7.5 8V15C7.5 15.2761 7.27614 15.5 7 15.5C6.72386 15.5 6.5 15.2761 6.5 15V8C6.5 7.72386 6.72386 7.5 7 7.5ZM4.49873 7.96438C4.47905 7.68894 4.23982 7.4816 3.96438 7.50127C3.68894 7.52095 3.4816 7.76018 3.50127 8.03562L4.00127 15.0356C4.02095 15.3111 4.26018 15.5184 4.53562 15.4987C4.81106 15.4791 5.0184 15.2398 4.99873 14.9644L4.49873 7.96438ZM10.4987 8.03562C10.5184 7.76018 10.3111 7.52095 10.0356 7.50127C9.76018 7.4816 9.52094 7.68894 9.50127 7.96438L9.00127 14.9644C8.9816 15.2398 9.18894 15.4791 9.46438 15.4987C9.73982 15.5184 9.97906 15.3111 9.99873 15.0356L10.4987 8.03562Z"
      fill="url(#paint0_radial_2307_34440)"
    />
    <defs>
      <radialGradient
        id="paint0_radial_2307_34440"
        cx="0"
        cy="0"
        r="1"
        gradientUnits="userSpaceOnUse"
        gradientTransform="translate(0 17.5) rotate(-50.5275) scale(22.0227 21.614)"
      >
        <stop stop-color="#FF5C78" />
        <stop offset="1" stop-color="#DC0000" />
      </radialGradient>
    </defs>
  </svg>