<svg width="16" height="16" viewBox="0 0 16 16" fill="none" xmlns="http://www.w3.org/2000/svg">
<path d="M4 9C4.55228 9 5 8.55228 5 8C5 7.44772 4.55228 7 4 7C3.44772 7 3 7.44772 3 8C3 8.55228 3.44772 9 4 9Z" fill="url(#paint0_radial_877_846)"/>
<path fill-rule="evenodd" clip-rule="evenodd" d="M1 7.4C1 6.55992 1 6.13988 1.16349 5.81901C1.3073 5.53677 1.53677 5.3073 1.81901 5.16349C2.13988 5 2.55992 5 3.4 5H12.6C13.4401 5 13.8601 5 14.181 5.16349C14.4632 5.3073 14.6927 5.53677 14.8365 5.81901C15 6.13988 15 6.55992 15 7.4V8.6C15 9.44008 15 9.86012 14.8365 10.181C14.6927 10.4632 14.4632 10.6927 14.181 10.8365C13.8601 11 13.4401 11 12.6 11H3.4C2.55992 11 2.13988 11 1.81901 10.8365C1.53677 10.6927 1.3073 10.4632 1.16349 10.181C1 9.86012 1 9.44008 1 8.6V7.4ZM3.4 6H12.6C13.0365 6 13.3038 6.00078 13.5038 6.01712C13.5969 6.02473 13.6533 6.03429 13.6875 6.04235C13.7038 6.04618 13.7138 6.04939 13.7192 6.05133C13.7244 6.05318 13.727 6.0545 13.727 6.0545C13.8211 6.10243 13.8976 6.17892 13.9455 6.273C13.9455 6.273 13.9468 6.27559 13.9487 6.28079C13.9506 6.2862 13.9538 6.29622 13.9577 6.3125C13.9657 6.34673 13.9753 6.40308 13.9829 6.49623C13.9992 6.6962 14 6.96346 14 7.4V8.6C14 9.03654 13.9992 9.3038 13.9829 9.50377C13.9753 9.59692 13.9657 9.65327 13.9577 9.6875C13.9538 9.70378 13.9506 9.7138 13.9487 9.71921C13.9468 9.72441 13.9455 9.727 13.9455 9.727C13.8976 9.82108 13.8211 9.89757 13.727 9.9455C13.727 9.9455 13.7244 9.94682 13.7192 9.94867C13.7138 9.95061 13.7038 9.95382 13.6875 9.95765C13.6533 9.96571 13.5969 9.97527 13.5038 9.98288C13.3038 9.99922 13.0365 10 12.6 10H3.4C2.96346 10 2.6962 9.99922 2.49623 9.98288C2.40308 9.97527 2.34673 9.96571 2.3125 9.95765C2.29622 9.95382 2.2862 9.95061 2.28079 9.94867C2.27559 9.94682 2.273 9.9455 2.273 9.9455C2.17892 9.89757 2.10243 9.82108 2.0545 9.727C2.0545 9.727 2.05318 9.72441 2.05133 9.71921C2.04939 9.7138 2.04618 9.70378 2.04235 9.6875C2.03429 9.65327 2.02473 9.59692 2.01712 9.50377C2.00078 9.3038 2 9.03654 2 8.6V7.4C2 6.96346 2.00078 6.6962 2.01712 6.49623C2.02473 6.40308 2.03429 6.34673 2.04235 6.3125C2.04618 6.29622 2.04939 6.2862 2.05133 6.28079C2.05318 6.27559 2.0545 6.273 2.0545 6.273C2.10243 6.17892 2.17892 6.10243 2.273 6.0545C2.273 6.0545 2.27559 6.05318 2.28079 6.05133C2.2862 6.04939 2.29622 6.04618 2.3125 6.04235C2.34673 6.03429 2.40308 6.02473 2.49623 6.01712C2.6962 6.00078 2.96346 6 3.4 6Z" fill="url(#paint1_radial_877_846)"/>
<defs>
<radialGradient id="paint0_radial_877_846" cx="0" cy="0" r="1" gradientUnits="userSpaceOnUse" gradientTransform="translate(1 11) rotate(-23.1986) scale(15.2315 11.0297)">
<stop stop-color="#5BCAFF"/>
<stop offset="1" stop-color="#0066FF"/>
</radialGradient>
<radialGradient id="paint1_radial_877_846" cx="0" cy="0" r="1" gradientUnits="userSpaceOnUse" gradientTransform="translate(1 11) rotate(-23.1986) scale(15.2315 11.0297)">
<stop stop-color="#5BCAFF"/>
<stop offset="1" stop-color="#0066FF"/>
</radialGradient>
</defs>
</svg>
