<svg width="14" height="6" viewBox="0 0 14 6" fill="none" xmlns="http://www.w3.org/2000/svg">
<path d="M3 4C3.55228 4 4 3.55228 4 3C4 2.44772 3.55228 2 3 2C2.44772 2 2 2.44772 2 3C2 3.55228 2.44772 4 3 4Z" fill="url(#paint0_radial_2858_25060)"/>
<path fill-rule="evenodd" clip-rule="evenodd" d="M0 2.4C0 1.55992 0 1.13988 0.16349 0.819014C0.3073 0.536771 0.536771 0.3073 0.819014 0.16349C1.13988 0 1.55992 0 2.4 0H11.6C12.4401 0 12.8601 0 13.181 0.16349C13.4632 0.3073 13.6927 0.536771 13.8365 0.819014C14 1.13988 14 1.55992 14 2.4V3.6C14 4.44008 14 4.86012 13.8365 5.18099C13.6927 5.46323 13.4632 5.6927 13.181 5.83651C12.8601 6 12.4401 6 11.6 6H2.4C1.55992 6 1.13988 6 0.819014 5.83651C0.536771 5.6927 0.3073 5.46323 0.16349 5.18099C0 4.86012 0 4.44008 0 3.6V2.4ZM2.4 1H11.6C12.0365 1 12.3038 1.00078 12.5038 1.01712C12.5969 1.02473 12.6533 1.03429 12.6875 1.04235C12.7038 1.04618 12.7138 1.04939 12.7192 1.05133C12.7244 1.05318 12.727 1.0545 12.727 1.0545C12.8211 1.10243 12.8976 1.17892 12.9455 1.273C12.9455 1.273 12.9468 1.27559 12.9487 1.28079C12.9506 1.2862 12.9538 1.29622 12.9577 1.3125C12.9657 1.34673 12.9753 1.40308 12.9829 1.49623C12.9992 1.6962 13 1.96346 13 2.4V3.6C13 4.03654 12.9992 4.3038 12.9829 4.50377C12.9753 4.59692 12.9657 4.65327 12.9577 4.6875C12.9538 4.70378 12.9506 4.7138 12.9487 4.71921C12.9468 4.72441 12.9455 4.727 12.9455 4.727C12.8976 4.82108 12.8211 4.89757 12.727 4.9455C12.727 4.9455 12.7244 4.94682 12.7192 4.94867C12.7138 4.95061 12.7038 4.95382 12.6875 4.95765C12.6533 4.96571 12.5969 4.97527 12.5038 4.98288C12.3038 4.99922 12.0365 5 11.6 5H2.4C1.96346 5 1.6962 4.99922 1.49623 4.98288C1.40308 4.97527 1.34673 4.96571 1.3125 4.95765C1.29622 4.95382 1.2862 4.95061 1.28079 4.94867C1.27559 4.94682 1.273 4.9455 1.273 4.9455C1.17892 4.89757 1.10243 4.82108 1.0545 4.727C1.0545 4.727 1.05318 4.72441 1.05133 4.71921C1.04939 4.7138 1.04618 4.70378 1.04235 4.6875C1.03429 4.65327 1.02473 4.59692 1.01712 4.50377C1.00078 4.3038 1 4.03654 1 3.6V2.4C1 1.96346 1.00078 1.6962 1.01712 1.49623C1.02473 1.40308 1.03429 1.34673 1.04235 1.3125C1.04618 1.29622 1.04939 1.2862 1.05133 1.28079C1.05318 1.27559 1.0545 1.273 1.0545 1.273C1.10243 1.17892 1.17892 1.10243 1.273 1.0545C1.273 1.0545 1.27559 1.05318 1.28079 1.05133C1.2862 1.04939 1.29622 1.04618 1.3125 1.04235C1.34673 1.03429 1.40308 1.02473 1.49623 1.01712C1.6962 1.00078 1.96346 1 2.4 1Z" fill="url(#paint1_radial_2858_25060)"/>
<defs>
<radialGradient id="paint0_radial_2858_25060" cx="0" cy="0" r="1" gradientUnits="userSpaceOnUse" gradientTransform="translate(0 6) rotate(-23.1986) scale(15.2315 11.0297)">
<stop stop-color="#FF5C78"/>
<stop offset="1" stop-color="#DC0000"/>
</radialGradient>
<radialGradient id="paint1_radial_2858_25060" cx="0" cy="0" r="1" gradientUnits="userSpaceOnUse" gradientTransform="translate(0 6) rotate(-23.1986) scale(15.2315 11.0297)">
<stop stop-color="#FF5C78"/>
<stop offset="1" stop-color="#DC0000"/>
</radialGradient>
</defs>
</svg>
