<svg width="16" height="16" viewBox="0 0 16 16" fill="none" xmlns="http://www.w3.org/2000/svg">
<path fill-rule="evenodd" clip-rule="evenodd" d="M8.00006 1.75C7.3097 1.75 6.75006 2.30964 6.75006 3C6.75006 3.69036 7.3097 4.25 8.00006 4.25C8.69042 4.25 9.25006 3.69036 9.25006 3C9.25006 2.30964 8.69042 1.75 8.00006 1.75ZM5.75006 3C5.75006 1.75736 6.75742 0.75 8.00006 0.75C9.2427 0.75 10.2501 1.75736 10.2501 3C10.2501 4.02577 9.56363 4.89122 8.62506 5.16206V5.55L8.417 7.27794L9.80916 6.23397L11.0346 5.52644C10.9236 4.8309 11.2418 4.1077 11.8882 3.73454C12.7252 3.25129 13.7955 3.53807 14.2787 4.37508C14.762 5.21209 14.4752 6.28238 13.6382 6.76562C12.9919 7.13876 12.2065 7.0528 11.6597 6.60894L10.4342 7.3165L8.81656 7.99993L10.4345 8.6835L10.7705 8.87748C11.4743 8.20012 12.567 8.0384 13.4553 8.55127C14.5315 9.17259 14.9002 10.5487 14.2789 11.6248C13.6575 12.701 12.2815 13.0697 11.2053 12.4484C10.3169 11.9355 9.91066 10.9083 10.1454 9.95999L9.80948 9.76603L8.41697 8.7218L8.62506 10.45V11.8649C9.2829 12.1165 9.75006 12.7537 9.75006 13.5C9.75006 14.4665 8.96656 15.25 8.00006 15.25C7.03356 15.25 6.25006 14.4665 6.25006 13.5C6.25006 12.7537 6.71722 12.1165 7.37506 11.8649V10.45L7.59208 8.70675L6.19064 9.7665L5.85472 9.96045C6.08943 10.9087 5.68314 11.9359 4.79481 12.4487C3.71865 13.0701 2.34257 12.7013 1.72125 11.6252C1.09993 10.549 1.46865 9.17294 2.54481 8.55162C3.43317 8.03872 4.5259 8.20048 5.22973 8.87791L5.56564 8.68397L7.1667 7.99993L5.56596 7.31603L4.34065 6.6086C3.79383 7.05262 3.00834 7.13865 2.36196 6.76546C1.52495 6.28221 1.23816 5.21193 1.72141 4.37492C2.20466 3.53791 3.27495 3.25113 4.11196 3.73438C4.75821 4.10749 5.07645 4.83054 4.96552 5.52599L6.19096 6.2335L7.59204 7.29298L7.37506 5.55V5.16206C6.43649 4.89122 5.75006 4.02577 5.75006 3ZM13.4128 11.1248C13.758 10.527 13.5532 9.76247 12.9553 9.41729C12.3574 9.07212 11.593 9.27696 11.2478 9.87483C10.9026 10.4727 11.1074 11.2372 11.7053 11.5824C12.3032 11.9275 13.0677 11.7227 13.4128 11.1248ZM4.29481 11.5827C3.69694 11.9279 2.93246 11.723 2.58728 11.1252C2.2421 10.5273 2.44694 9.76282 3.04481 9.41764C3.64268 9.07246 4.40716 9.27731 4.75234 9.87517C5.09752 10.473 4.89268 11.2375 4.29481 11.5827Z" fill="url(#paint0_radial_2274_1)"/>
<defs>
<radialGradient id="paint0_radial_2274_1" cx="0" cy="0" r="1" gradientUnits="userSpaceOnUse" gradientTransform="translate(1.41943 15.25) rotate(-47.7708) scale(19.5824 19.4908)">
<stop stop-color="#5BCAFF"/>
<stop offset="1" stop-color="#0066FF"/>
</radialGradient>
</defs>
</svg>
