<svg width="16" height="16" viewBox="0 0 16 16" fill="none" xmlns="http://www.w3.org/2000/svg">
<path fill-rule="evenodd" clip-rule="evenodd" d="M2.9928 13.9791C2.99946 13.8816 3 13.7467 3 13.5V2.5C3 2.25335 2.99946 2.11844 2.9928 2.02092L2.99187 2.00813L2.97908 2.0072C2.88156 2.00054 2.74665 2 2.5 2C2.25335 2 2.11844 2.00054 2.02092 2.0072L2.00813 2.00813L2.0072 2.02092C2.00054 2.11844 2 2.25335 2 2.5V13.5C2 13.7467 2.00054 13.8816 2.0072 13.9791L2.00813 13.9919L2.02092 13.9928C2.11844 13.9995 2.25335 14 2.5 14C2.74665 14 2.88156 13.9995 2.97908 13.9928L2.99187 13.9919L2.9928 13.9791ZM4 13.5V12H6V12.3C6 12.72 6 12.9301 6.08175 13.0905C6.15365 13.2316 6.26839 13.3463 6.40951 13.4183C6.56994 13.5 6.77996 13.5 7.2 13.5H10.8C11.22 13.5 11.4301 13.5 11.5905 13.4183C11.7316 13.3463 11.8463 13.2316 11.9183 13.0905C12 12.9301 12 12.72 12 12.3V12H12.6C13.4401 12 13.8601 12 14.181 11.8365C14.4632 11.6927 14.6927 11.4632 14.8365 11.181C15 10.8601 15 10.4401 15 9.6V4.9C15 4.05992 15 3.63988 14.8365 3.31901C14.6927 3.03677 14.4632 2.8073 14.181 2.66349C13.8601 2.5 13.4401 2.5 12.6 2.5H4C4 2.03406 4 1.80109 3.92388 1.61732C3.82239 1.37229 3.62771 1.17761 3.38268 1.07612C3.19891 1 2.96594 1 2.5 1C2.03406 1 1.80109 1 1.61732 1.07612C1.37229 1.17761 1.17761 1.37229 1.07612 1.61732C1 1.80109 1 2.03406 1 2.5V13.5C1 13.9659 1 14.1989 1.07612 14.3827C1.17761 14.6277 1.37229 14.8224 1.61732 14.9239C1.80109 15 2.03406 15 2.5 15C2.96594 15 3.19891 15 3.38268 14.9239C3.62771 14.8224 3.82239 14.6277 3.92388 14.3827C4 14.1989 4 13.9659 4 13.5ZM7 11H4V3.5H12.6C13.0365 3.5 13.3038 3.50078 13.5038 3.51712C13.5969 3.52473 13.6533 3.53429 13.6875 3.54235C13.7038 3.54618 13.7138 3.54939 13.7192 3.55133L13.7238 3.55306L13.727 3.5545C13.8211 3.60243 13.8976 3.67892 13.9455 3.773C13.9455 3.773 13.9468 3.77559 13.9487 3.78079C13.9506 3.7862 13.9538 3.79622 13.9577 3.8125C13.9657 3.84673 13.9753 3.90308 13.9829 3.99623C13.9992 4.1962 14 4.46346 14 4.9V9.6C14 10.0365 13.9992 10.3038 13.9829 10.5038C13.9753 10.5969 13.9657 10.6533 13.9577 10.6875C13.9538 10.7038 13.9506 10.7138 13.9487 10.7192C13.9468 10.7244 13.9455 10.727 13.9455 10.727C13.8976 10.8211 13.8211 10.8976 13.727 10.9455C13.727 10.9455 13.7244 10.9468 13.7192 10.9487C13.7138 10.9506 13.7038 10.9538 13.6875 10.9577C13.6533 10.9657 13.5969 10.9753 13.5038 10.9829C13.3038 10.9992 13.0365 11 12.6 11H11V12.3C11 12.3774 11 12.4424 10.9996 12.4996C10.9424 12.5 10.8774 12.5 10.8 12.5H7.2C7.12256 12.5 7.0576 12.5 7.00044 12.4996C7.00001 12.4424 7 12.3774 7 12.3V11ZM12.5 7.14203H11.6989C11.6932 7.07575 11.678 7.01561 11.6534 6.96164C11.6297 6.90766 11.5966 6.86126 11.554 6.82243C11.5123 6.78266 11.4616 6.75236 11.402 6.73152C11.3423 6.70974 11.2746 6.69885 11.1989 6.69885C11.0663 6.69885 10.9541 6.73105 10.8622 6.79544C10.7713 6.85984 10.7022 6.95217 10.6548 7.07243C10.6084 7.1927 10.5852 7.33711 10.5852 7.50567C10.5852 7.6837 10.6089 7.83285 10.6562 7.95311C10.7045 8.07243 10.7741 8.16239 10.8651 8.223C10.956 8.28266 11.0653 8.31249 11.1932 8.31249C11.2661 8.31249 11.3314 8.30349 11.3892 8.2855C11.447 8.26656 11.4972 8.23957 11.5398 8.20453C11.5824 8.1695 11.6169 8.12736 11.6435 8.07811C11.6709 8.02792 11.6894 7.97158 11.6989 7.90908L12.5 7.91476C12.4905 8.03787 12.456 8.16334 12.3963 8.29118C12.3366 8.41808 12.2519 8.5355 12.142 8.64345C12.0331 8.75046 11.8982 8.83664 11.7372 8.90198C11.5762 8.96732 11.3892 8.99999 11.1761 8.99999C10.9091 8.99999 10.6695 8.9427 10.4574 8.82811C10.2462 8.71353 10.0791 8.54497 9.95596 8.32243C9.8338 8.09989 9.77273 7.82764 9.77273 7.50567C9.77273 7.18181 9.83523 6.90908 9.96023 6.68749C10.0852 6.46495 10.2538 6.29686 10.4659 6.18323C10.678 6.06864 10.9148 6.01135 11.1761 6.01135C11.3598 6.01135 11.5289 6.03645 11.6832 6.08664C11.8376 6.13683 11.973 6.21022 12.0895 6.30681C12.206 6.40245 12.2997 6.52035 12.3707 6.6605C12.4418 6.80065 12.4848 6.96116 12.5 7.14203ZM8.24645 8.96022V6.05113H7.45667V7.57385H7.43395L6.39986 6.05113H5.7294V8.96022H6.51917V7.43181H6.53622L7.58736 8.96022H8.24645ZM9.4098 6.05113V8.96022H8.62003V6.05113H9.4098Z" fill="url(#paint0_radial_7729_57445)"/>
<defs>
<radialGradient id="paint0_radial_7729_57445" cx="0" cy="0" r="1" gradientUnits="userSpaceOnUse" gradientTransform="translate(1 15) rotate(-45) scale(19.799)">
<stop stop-color="#5BCAFF"/>
<stop offset="1" stop-color="#0066FF"/>
</radialGradient>
</defs>
</svg>
