<svg width="16" height="16" viewBox="0 0 16 16" fill="none" xmlns="http://www.w3.org/2000/svg">
<path fill-rule="evenodd" clip-rule="evenodd" d="M4.2 3H11.8C12.3766 3 12.7488 3.00078 13.0322 3.02393C13.3038 3.04612 13.4045 3.0838 13.454 3.10899C13.6422 3.20487 13.7951 3.35785 13.891 3.54601C13.9162 3.59545 13.9539 3.69617 13.9761 3.96784C13.9992 4.25117 14 4.62345 14 5.2V10.8C14 11.3766 13.9992 11.7488 13.9761 12.0322C13.9539 12.3038 13.9162 12.4045 13.891 12.454C13.7951 12.6422 13.6422 12.7951 13.454 12.891C13.4045 12.9162 13.3038 12.9539 13.0322 12.9761C12.7488 12.9992 12.3766 13 11.8 13H4.2C3.62345 13 3.25117 12.9992 2.96784 12.9761C2.69617 12.9539 2.59545 12.9162 2.54601 12.891C2.35785 12.7951 2.20487 12.6422 2.10899 12.454C2.0838 12.4045 2.04612 12.3038 2.02393 12.0322C2.00078 11.7488 2 11.3766 2 10.8V5.2C2 4.62345 2.00078 4.25117 2.02393 3.96784C2.04612 3.69617 2.0838 3.59545 2.10899 3.54601C2.20487 3.35785 2.35785 3.20487 2.54601 3.10899C2.59545 3.0838 2.69617 3.04612 2.96784 3.02393C3.25117 3.00078 3.62345 3 4.2 3ZM1 5.2C1 4.0799 1 3.51984 1.21799 3.09202C1.40973 2.71569 1.71569 2.40973 2.09202 2.21799C2.51984 2 3.0799 2 4.2 2H11.8C12.9201 2 13.4802 2 13.908 2.21799C14.2843 2.40973 14.5903 2.71569 14.782 3.09202C15 3.51984 15 4.0799 15 5.2V10.8C15 11.9201 15 12.4802 14.782 12.908C14.5903 13.2843 14.2843 13.5903 13.908 13.782C13.4802 14 12.9201 14 11.8 14H4.2C3.0799 14 2.51984 14 2.09202 13.782C1.71569 13.5903 1.40973 13.2843 1.21799 12.908C1 12.4802 1 11.9201 1 10.8V5.2ZM5.5 10V9H4V5H5V7C5 7.27614 5.22386 7.5 5.5 7.5C5.77614 7.5 6 7.27614 6 7V5H6.66669V7C6.66669 7.27614 6.89054 7.5 7.16669 7.5C7.44283 7.5 7.66669 7.27614 7.66669 7V5H8.33337V7C8.33337 7.27614 8.55723 7.5 8.83337 7.5C9.10952 7.5 9.33337 7.27614 9.33337 7V5H10V7C10 7.27614 10.2239 7.5 10.5 7.5C10.7761 7.5 11 7.27614 11 7V5H12V9H10.5V10H9V11H7V10H5.5ZM12.727 9.9455C12.62 10 12.48 10 12.2 10H11.5V10.2C11.5 10.48 11.5 10.62 11.4455 10.727C11.3976 10.8211 11.3211 10.8976 11.227 10.9455C11.12 11 10.98 11 10.7 11H10V11.2C10 11.48 10 11.62 9.9455 11.727C9.89757 11.8211 9.82108 11.8976 9.727 11.9455C9.62004 12 9.48003 12 9.2 12H6.8C6.51997 12 6.37996 12 6.273 11.9455C6.17892 11.8976 6.10243 11.8211 6.0545 11.727C6 11.62 6 11.48 6 11.2V11H5.3C5.01997 11 4.87996 11 4.773 10.9455C4.67892 10.8976 4.60243 10.8211 4.5545 10.727C4.5 10.62 4.5 10.48 4.5 10.2V10H3.8C3.51997 10 3.37996 10 3.273 9.9455C3.17892 9.89757 3.10243 9.82108 3.0545 9.727C3 9.62004 3 9.48003 3 9.2V4.8C3 4.51997 3 4.37996 3.0545 4.273C3.10243 4.17892 3.17892 4.10243 3.273 4.0545C3.37996 4 3.51997 4 3.8 4H12.2C12.48 4 12.62 4 12.727 4.0545C12.8211 4.10243 12.8976 4.17892 12.9455 4.273C13 4.37996 13 4.51997 13 4.8V9.2C13 9.48003 13 9.62004 12.9455 9.727C12.8976 9.82108 12.8211 9.89757 12.727 9.9455Z" fill="url(#paint0_radial_2237_2)"/>
<defs>
<radialGradient id="paint0_radial_2237_2" cx="0" cy="0" r="1" gradientUnits="userSpaceOnUse" gradientTransform="translate(1 14) rotate(-40.6013) scale(18.4391 18.2222)">
<stop stop-color="#5BCAFF"/>
<stop offset="1" stop-color="#0066FF"/>
</radialGradient>
</defs>
</svg>
