<svg width="16" height="16" viewBox="0 0 16 16" fill="none" xmlns="http://www.w3.org/2000/svg">
<path fill-rule="evenodd" clip-rule="evenodd" d="M3 13.5C3 13.7467 2.99946 13.8816 2.9928 13.9791L2.99187 13.9919L2.97908 13.9928C2.88156 13.9995 2.74665 14 2.5 14C2.25335 14 2.11844 13.9995 2.02092 13.9928L2.00813 13.9919L2.0072 13.9791C2.00054 13.8816 2 13.7467 2 13.5V2.5C2 2.25335 2.00054 2.11844 2.0072 2.02092L2.00813 2.00813L2.02092 2.0072C2.11844 2.00054 2.25335 2 2.5 2C2.74665 2 2.88156 2.00054 2.97908 2.0072L2.99187 2.00813L2.9928 2.02092C2.99946 2.11844 3 2.25335 3 2.5V13.5ZM4 12V13.5C4 13.9659 4 14.1989 3.92388 14.3827C3.82239 14.6277 3.62771 14.8224 3.38268 14.9239C3.19891 15 2.96594 15 2.5 15C2.03406 15 1.80109 15 1.61732 14.9239C1.37229 14.8224 1.17761 14.6277 1.07612 14.3827C1 14.1989 1 13.9659 1 13.5V2.5C1 2.03406 1 1.80109 1.07612 1.61732C1.17761 1.37229 1.37229 1.17761 1.61732 1.07612C1.80109 1 2.03406 1 2.5 1C2.96594 1 3.19891 1 3.38268 1.07612C3.62771 1.17761 3.82239 1.37229 3.92388 1.61732C4 1.80109 4 2.03406 4 2.5H12.6C13.4401 2.5 13.8601 2.5 14.181 2.66349C14.4632 2.8073 14.6927 3.03677 14.8365 3.31901C15 3.63988 15 4.05992 15 4.9V9.6C15 10.4401 15 10.8601 14.8365 11.181C14.6927 11.4632 14.4632 11.6927 14.181 11.8365C13.8601 12 13.4401 12 12.6 12H12V12.3C12 12.72 12 12.9301 11.9183 13.0905C11.8463 13.2316 11.7316 13.3463 11.5905 13.4183C11.4301 13.5 11.22 13.5 10.8 13.5H7.2C6.77996 13.5 6.56994 13.5 6.40951 13.4183C6.26839 13.3463 6.15365 13.2316 6.08175 13.0905C6 12.9301 6 12.72 6 12.3V12H4ZM4 11H7V12.3C7 12.3774 7.00001 12.4424 7.00044 12.4996C7.0576 12.5 7.12256 12.5 7.2 12.5H10.8C10.8774 12.5 10.9424 12.5 10.9996 12.4996C11 12.4424 11 12.3774 11 12.3V11H12.6C13.0365 11 13.3038 10.9992 13.5038 10.9829C13.5969 10.9753 13.6533 10.9657 13.6875 10.9577C13.7038 10.9538 13.7138 10.9506 13.7192 10.9487C13.7244 10.9468 13.727 10.9455 13.727 10.9455C13.8211 10.8976 13.8976 10.8211 13.9455 10.727C13.9455 10.727 13.9468 10.7244 13.9487 10.7192C13.9506 10.7138 13.9538 10.7038 13.9577 10.6875C13.9657 10.6533 13.9753 10.5969 13.9829 10.5038C13.9992 10.3038 14 10.0365 14 9.6V4.9C14 4.46346 13.9992 4.1962 13.9829 3.99623C13.9753 3.90308 13.9657 3.84673 13.9577 3.8125C13.9538 3.79622 13.9506 3.7862 13.9487 3.78079C13.9468 3.77559 13.9455 3.773 13.9455 3.773C13.8976 3.67892 13.8211 3.60243 13.727 3.5545L13.7238 3.55306L13.7192 3.55133C13.7138 3.54939 13.7038 3.54618 13.6875 3.54235C13.6533 3.53429 13.5969 3.52473 13.5038 3.51712C13.3038 3.50078 13.0365 3.5 12.6 3.5H4V11ZM5 6V8.61818H5.63281V7.72202H5.95693L6.43565 8.61818H7.12599L6.58327 7.62213C6.72748 7.55571 6.83893 7.45988 6.91761 7.33466C6.99687 7.20767 7.03651 7.05341 7.03651 6.87187C7.03651 6.6929 6.99773 6.53821 6.92017 6.40781C6.84261 6.27656 6.73224 6.17599 6.58906 6.10611C6.44673 6.03537 6.27756 6 6.08153 6H5ZM5.63281 7.22344H5.94474C6.0402 7.22344 6.11989 7.21108 6.18381 7.18636C6.24858 7.1608 6.29759 7.12244 6.33082 7.07131C6.36406 7.01932 6.38068 6.95284 6.38068 6.87187C6.38068 6.79091 6.36406 6.72401 6.33082 6.67116C6.29759 6.61747 6.24858 6.57741 6.18381 6.55099C6.11903 6.52372 6.03935 6.51009 5.94474 6.51009H5.63281V7.22344ZM7.26982 8.61818H7.94993L8.12216 8.06847H9.02634L9.19893 8.61818H9.87905L8.99567 6H8.1532L7.26982 8.61818ZM8.87542 7.58778L8.58402 6.65966H8.56357L8.27277 7.58778H8.87542ZM10.7937 6V8.61818H10.1609V6H10.7937ZM11.191 8.61818H12.1588C12.4247 8.61818 12.6544 8.56619 12.8478 8.46222C13.0413 8.35739 13.19 8.20696 13.294 8.01094C13.3988 7.81492 13.4512 7.58054 13.4512 7.30781C13.4512 7.03594 13.3988 6.80241 13.294 6.60724C13.1892 6.41122 13.04 6.26122 12.8466 6.15724C12.6539 6.05241 12.4243 6 12.1575 6H11.191V8.61818ZM12.1345 8.07869H11.8238V6.53949H12.1255C12.2755 6.53949 12.4017 6.56463 12.5039 6.61491C12.6071 6.66435 12.6851 6.74531 12.7379 6.85781C12.7907 6.96946 12.8172 7.11946 12.8172 7.30781C12.8172 7.49616 12.7907 7.64702 12.7379 7.76037C12.6859 7.87287 12.6088 7.95426 12.5065 8.00455C12.4051 8.05398 12.2811 8.07869 12.1345 8.07869Z" fill="url(#paint0_radial_7729_57499)"/>
<defs>
<radialGradient id="paint0_radial_7729_57499" cx="0" cy="0" r="1" gradientUnits="userSpaceOnUse" gradientTransform="translate(1 15) rotate(-45) scale(19.799)">
<stop stop-color="#CCD4E3"/>
<stop offset="1" stop-color="#6B7D99"/>
</radialGradient>
</defs>
</svg>
