<svg width="16" height="16" viewBox="0 0 16 16" fill="none" xmlns="http://www.w3.org/2000/svg">
<path fill-rule="evenodd" clip-rule="evenodd" d="M8 15C11.866 15 15 11.866 15 8C15 4.13401 11.866 1 8 1C4.13401 1 1 4.13401 1 8C1 11.866 4.13401 15 8 15ZM8 14C11.3137 14 14 11.3137 14 8C14 4.68629 11.3137 2 8 2C4.68629 2 2 4.68629 2 8C2 11.3137 4.68629 14 8 14Z" fill="url(#paint0_radial_878_23854)"/>
<path d="M5 7.5C4.72386 7.5 4.5 7.72386 4.5 8C4.5 8.27614 4.72386 8.5 5 8.5H7.5H8.5H11C11.2761 8.5 11.5 8.27614 11.5 8C11.5 7.72386 11.2761 7.5 11 7.5H8.5H7.5H5Z" fill="url(#paint1_radial_878_23854)"/>
<defs>
<radialGradient id="paint0_radial_878_23854" cx="0" cy="0" r="1" gradientUnits="userSpaceOnUse" gradientTransform="translate(1 15) rotate(-45) scale(19.799)">
<stop stop-color="#FF5C78"/>
<stop offset="1" stop-color="#DC0000"/>
</radialGradient>
<radialGradient id="paint1_radial_878_23854" cx="0" cy="0" r="1" gradientUnits="userSpaceOnUse" gradientTransform="translate(1 15) rotate(-45) scale(19.799)">
<stop stop-color="#FF5C78"/>
<stop offset="1" stop-color="#DC0000"/>
</radialGradient>
</defs>
</svg>
