<svg width="16" height="16" viewBox="0 0 16 16" fill="none" xmlns="http://www.w3.org/2000/svg">
<path fill-rule="evenodd" clip-rule="evenodd" d="M3.5 2C3.5 1.72386 3.72386 1.5 4 1.5C4.27614 1.5 4.5 1.72386 4.5 2V3C4.5 3.27614 4.27614 3.5 4 3.5C3.72386 3.5 3.5 3.27614 3.5 3V2ZM3.5 13C3.5 12.7239 3.72386 12.5 4 12.5C4.27614 12.5 4.5 12.7239 4.5 13V14C4.5 14.2761 4.27614 14.5 4 14.5C3.72386 14.5 3.5 14.2761 3.5 14V13ZM8 1.5C7.72386 1.5 7.5 1.72386 7.5 2V3C7.5 3.27614 7.72386 3.5 8 3.5C8.27614 3.5 8.5 3.27614 8.5 3V2C8.5 1.72386 8.27614 1.5 8 1.5ZM7.5 13C7.5 12.7239 7.72386 12.5 8 12.5C8.27614 12.5 8.5 12.7239 8.5 13V14C8.5 14.2761 8.27614 14.5 8 14.5C7.72386 14.5 7.5 14.2761 7.5 14V13ZM12 1.5C11.7239 1.5 11.5 1.72386 11.5 2V3C11.5 3.27614 11.7239 3.5 12 3.5C12.2761 3.5 12.5 3.27614 12.5 3V2C12.5 1.72386 12.2761 1.5 12 1.5ZM11.5 13C11.5 12.7239 11.7239 12.5 12 12.5C12.2761 12.5 12.5 12.7239 12.5 13V14C12.5 14.2761 12.2761 14.5 12 14.5C11.7239 14.5 11.5 14.2761 11.5 14V13ZM1 6.5C1 5.79993 1 5.4499 1.13624 5.18251C1.25608 4.94731 1.44731 4.75608 1.68251 4.63624C1.9499 4.5 2.29993 4.5 3 4.5H13C13.7001 4.5 14.0501 4.5 14.3175 4.63624C14.5527 4.75608 14.7439 4.94731 14.8638 5.18251C15 5.4499 15 5.79993 15 6.5V9.5C15 10.2001 15 10.5501 14.8638 10.8175C14.7439 11.0527 14.5527 11.2439 14.3175 11.3638C14.0501 11.5 13.7001 11.5 13 11.5H3C2.29993 11.5 1.9499 11.5 1.68251 11.3638C1.44731 11.2439 1.25608 11.0527 1.13624 10.8175C1 10.5501 1 10.2001 1 9.5V6.5ZM11.5 5.5H12.5V6.16667H13.5V7.5H10.5V6.16667H11.5V5.5ZM4.5 9.83333V10.5H3.5V9.83333H2.5V8.5H5.5V9.83333H4.5ZM7.5 9.83333V10.5H8.5V9.83333H9.5V8.5H6.5V9.83333H7.5ZM11.5 10.5H12.5V9.83333H13.5V8.5H10.5V9.83333H11.5V10.5ZM8.5 6.16667V5.5H7.5V6.16667H6.5V7.5H9.5V6.16667H8.5ZM3.5 5.5H4.5V6.16667H5.5V7.5H2.5V6.16667H3.5V5.5Z" fill="url(#paint0_radial_2238_4)"/>
<defs>
<radialGradient id="paint0_radial_2238_4" cx="0" cy="0" r="1" gradientUnits="userSpaceOnUse" gradientTransform="translate(1 14.5) rotate(-42.8789) scale(19.105 19.0526)">
<stop stop-color="#5BCAFF"/>
<stop offset="1" stop-color="#0066FF"/>
</radialGradient>
</defs>
</svg>
